<svg width="24" height="24" viewBox="0 0 24 24" fill="none"
  xmlns="http://www.w3.org/2000/svg">
  <g opacity="0.9">
    <path d="M21 5C19.89 4.65 18.67 4.5 17.5 4.5C15.8186 4.5 14.0256 4.79741 12.634 5.58456C12.2436 5.80539 11.7564 5.80539 11.366 5.58456C9.97441 4.79741 8.18144 4.5 6.5 4.5C4.72638 4.5 2.82867 4.83091 1.40883 5.71847C1.14356 5.88429 1 6.18375 1 6.49657V20.65C1 20.9 1.25 21.15 1.5 21.15C1.50979 21.15 1.51909 21.1495 1.52802 21.1487C1.67752 21.1342 1.81963 21.0654 1.95674 21.0041C3.29364 20.4061 5.12246 20 6.5 20C8.20472 20 10.0241 20.3057 11.4236 21.1175C11.7838 21.3265 12.2313 21.3488 12.6055 21.1662C14.0009 20.4856 16.0306 20 17.5 20C19.15 20 20.85 20.3 22.25 21.05C22.35 21.1 22.4 21.1 22.5 21.1C22.75 21.1 23 20.85 23 20.6V6.5C23 6.18524 22.8547 5.88402 22.5872 5.71813C22.1027 5.41765 21.5814 5.1938 21 5ZM21 17.1324C21 17.8092 20.3387 18.2941 19.6718 18.1785C18.963 18.0557 18.2315 18 17.5 18C16.3638 18 14.8925 18.2904 13.6386 18.7367C12.8972 19.0006 12 18.4756 12 17.6887V8.55208C12 8.20847 12.1741 7.88507 12.4801 7.72882C13.8771 7.01557 15.986 6.5 17.5 6.5C18.4482 6.5 19.3964 6.59366 20.2953 6.80564C20.7191 6.90559 21 7.29574 21 7.73122V17.1324Z" fill="#787485"/>
    <path d="M17.5 10.5C18.0494 10.5 18.5872 10.5351 19.1011 10.6028C19.5658 10.6641 20 10.3159 20 9.84716C20 9.49492 19.7498 9.19034 19.4012 9.13982C18.7873 9.05086 18.1465 9 17.5 9C15.988 9 14.6026 9.22939 13.4282 9.66004C13.1657 9.7563 13 10.0113 13 10.2909C13 10.8264 13.588 11.1783 14.0949 11.0058C15.0647 10.6757 16.2246 10.5 17.5 10.5Z" fill="#787485"/>
    <path d="M13.4314 12.3215C13.1674 12.417 13 12.6726 13 12.9533C13 13.4877 13.5868 13.8389 14.0926 13.6666C15.0629 13.336 16.2236 13.16 17.5 13.16C18.0494 13.16 18.5872 13.1951 19.1011 13.2628C19.5658 13.3241 20 12.9759 20 12.5072C20 12.1549 19.7498 11.8503 19.4012 11.7998C18.7873 11.7109 18.1465 11.66 17.5 11.66C15.9894 11.66 14.6051 11.8969 13.4314 12.3215Z" fill="#787485"/>
    <path d="M17.5 14.33C15.988 14.33 14.6026 14.5594 13.4282 14.99C13.1657 15.0863 13 15.3413 13 15.6209C13 16.1564 13.588 16.5083 14.0949 16.3358C15.0647 16.0057 16.2246 15.83 17.5 15.83C18.0478 15.83 18.5841 15.8649 19.0966 15.9322C19.5636 15.9936 20 15.6437 20 15.1726C20 14.822 19.7533 14.5176 19.4064 14.4664C18.7909 14.3755 18.1483 14.33 17.5 14.33Z" fill="#787485"/>
  </g>
</svg>
