<svg width="24" height="24" viewBox="0 0 24 24" fill="none"
  xmlns="http://www.w3.org/2000/svg">
  <g opacity="0.9">
    <path fill-rule="evenodd" clip-rule="evenodd" d="M5 3C3.89543 3 3 3.89543 3 5V19C3 20.1046 3.89543 21 5 21H19C20.1046 21 21 20.1046 21 19V5C21 3.89543 20.1046 3 19 3H5ZM7 6C6.44772 6 6 6.44772 6 7V9.26756C5.4022 9.61337 5 10.2597 5 11C5 11.7403 5.4022 12.3866 6 12.7324V17C6 17.5523 6.44772 18 7 18C7.55228 18 8 17.5523 8 17V12.7324C8.5978 12.3866 9 11.7403 9 11C9 10.2597 8.5978 9.61337 8 9.26756V7C8 6.44772 7.55228 6 7 6ZM11 7C11 6.44772 11.4477 6 12 6C12.5523 6 13 6.44772 13 7V12.2676C13.5978 12.6134 14 13.2597 14 14C14 14.7403 13.5978 15.3866 13 15.7324V17C13 17.5523 12.5523 18 12 18C11.4477 18 11 17.5523 11 17V15.7324C10.4022 15.3866 10 14.7403 10 14C10 13.2597 10.4022 12.6134 11 12.2676V7ZM16 7C16 6.44772 16.4477 6 17 6C17.5523 6 18 6.44772 18 7V8.26756C18.5978 8.61337 19 9.25972 19 10C19 10.7403 18.5978 11.3866 18 11.7324V17C18 17.5523 17.5523 18 17 18C16.4477 18 16 17.5523 16 17V11.7324C15.4022 11.3866 15 10.7403 15 10C15 9.25972 15.4022 8.61337 16 8.26756V7Z" fill="#2D2CE5"/>
  </g>
</svg>
